<svg width="800" height="800" viewBox="0 0 800 800" fill="none" xmlns="http://www.w3.org/2000/svg">
<g clip-path="url(#clip0_1287_28)">
<path d="M468.366 91.7001L632.866 186.7C640.512 178.648 649.93 172.488 660.371 168.709C670.812 164.931 681.991 163.637 693.019 164.931C704.048 166.225 714.623 170.071 723.906 176.164C733.189 182.257 740.925 190.43 746.499 200.033C752.007 209.655 755.203 220.425 755.835 231.494C756.467 242.562 754.517 253.626 750.14 263.812C745.763 273.997 739.079 283.026 730.614 290.186C722.15 297.346 712.137 302.44 701.366 305.067V495.033C712.169 497.6 722.221 502.662 730.715 509.814C739.209 516.965 745.909 526.008 750.278 536.217C754.646 546.425 756.562 557.515 755.871 568.598C755.18 579.68 751.902 590.447 746.299 600.033C740.64 609.803 732.746 618.092 723.265 624.22C713.783 630.349 702.984 634.143 691.752 635.291C680.521 636.439 669.177 634.909 658.652 630.826C648.126 626.742 638.718 620.222 631.199 611.8L467.699 706.2C470.953 716 472.04 726.388 470.886 736.649C469.732 746.91 466.364 756.797 461.015 765.629C455.666 774.461 448.463 782.026 439.905 787.802C431.346 793.579 421.636 797.428 411.444 799.085C401.253 800.741 390.823 800.166 380.876 797.398C370.929 794.63 361.701 789.735 353.83 783.052C345.959 776.369 339.633 768.057 335.288 758.69C330.944 749.324 328.684 739.125 328.666 728.8C328.666 721.967 329.633 715.133 331.599 708.5L167.066 613.6C159.407 621.603 149.989 627.712 139.559 631.443C129.129 635.174 117.974 636.424 106.976 635.096C95.9791 633.767 85.4424 629.896 76.2011 623.788C66.9598 617.68 59.268 609.504 53.735 599.908C48.202 590.311 44.98 579.558 44.3242 568.5C43.6684 557.443 45.5969 546.384 49.9569 536.201C54.3169 526.018 60.9885 516.99 69.4431 509.833C77.8977 502.676 87.903 497.586 98.6661 494.967L98.6995 305C87.9054 302.415 77.8631 297.348 69.3706 290.201C60.8781 283.055 54.1697 274.026 49.7783 263.832C45.3869 253.638 43.4337 242.561 44.0739 231.48C44.7141 220.399 47.93 209.62 53.4661 200C59.0231 190.391 66.743 182.21 76.0131 176.105C85.2832 169.999 95.8485 166.139 106.871 164.828C117.893 163.518 129.069 164.794 139.512 168.556C149.955 172.318 159.378 178.462 167.033 186.5L331.633 91.5001C328.484 80.8654 327.861 69.6426 329.813 58.7246C331.764 47.8066 336.238 37.4949 342.876 28.61C349.515 19.7251 358.136 12.5123 368.052 7.54551C377.969 2.57872 388.908 -0.00493612 399.999 0.000131618C411.116 -0.0212355 422.082 2.55926 432.023 7.53518C441.963 12.5111 450.601 19.7443 457.245 28.6563C463.889 37.5682 468.355 47.9114 470.287 58.8585C472.218 69.8056 471.56 81.0527 468.366 91.7001ZM451.199 120.933C450.589 121.611 449.943 122.256 449.266 122.867L664.633 495.867C665.499 495.567 666.499 495.333 667.366 495.1V304.867C658.289 302.616 649.745 298.599 642.222 293.045C634.699 287.491 628.344 280.508 623.521 272.496C618.698 264.485 615.501 255.601 614.113 246.353C612.725 237.105 613.174 227.675 615.433 218.6L616.066 216.2L451.199 120.933ZM350.699 122.9L348.699 120.9L183.833 215.967C186.427 224.954 187.225 234.363 186.182 243.659C185.138 252.954 182.273 261.953 177.751 270.141C173.228 278.328 167.136 285.545 159.824 291.377C152.511 297.21 144.121 301.545 135.133 304.133L132.599 304.833V495.1L135.399 495.867L350.766 122.867L350.699 122.9ZM419.899 139.8C406.899 143.533 393.133 143.533 380.166 139.8L164.833 512.767C174.633 522.2 181.566 534.267 184.833 547.467H615.199C618.433 534.2 625.433 522.1 635.299 512.667L419.899 139.8ZM452.766 680.7L616.533 586.1C616.044 584.541 615.622 582.962 615.266 581.367H184.733L184.033 584.133L348.666 679.2C355.306 672.289 363.279 666.797 372.102 663.056C380.925 659.315 390.416 657.402 399.999 657.433C420.899 657.433 439.666 666.4 452.766 680.7Z" fill="white"/>
</g>
<defs>
<clipPath id="clip0_1287_28">
<rect width="800" height="800" fill="white"/>
</clipPath>
</defs>
</svg>
