<svg width="667" height="398" viewBox="0 0 667 398" fill="none" xmlns="http://www.w3.org/2000/svg">
<path fill-rule="evenodd" clip-rule="evenodd" d="M333.333 0C244.433 0 188.9 44.1667 166.667 132.533C200 88.3667 238.9 71.8 283.333 82.8333C308.7 89.1333 326.833 107.433 346.867 127.667C379.567 160.633 417.4 198.8 500 198.8C588.9 198.8 644.433 154.633 666.667 66.2667C633.333 110.433 594.467 127 550 115.967C524.633 109.667 506.5 91.3667 486.433 71.1333C453.767 38.1333 415.967 0 333.333 0ZM166.667 198.8C77.7667 198.8 22.2333 242.967 0 331.333C33.3333 287.133 72.2333 270.6 116.667 281.633C142.033 287.933 160.167 306.233 180.233 326.467C212.9 359.433 250.733 397.6 333.367 397.6C422.267 397.6 477.8 353.433 500.033 265.067C466.7 309.233 427.8 325.8 383.367 314.767C358 308.467 339.867 290.167 319.833 269.933C287.1 236.967 249.267 198.8 166.667 198.8Z" fill="white"/>
</svg>
