<svg width="24" height="24" viewBox="0 0 24 24" fill="none" xmlns="http://www.w3.org/2000/svg">
<g clip-path="url(#clip0_1285_23)">
<path d="M8.28731 10.5777L8.79931 1.92074C8.80339 1.853 8.82986 1.78853 8.87457 1.73748C8.91929 1.68643 8.9797 1.6517 9.04631 1.63874L17.3783 0.00573514C17.4298 -0.00437017 17.483 -0.0010815 17.5328 0.0152856C17.5826 0.0316527 17.6274 0.060549 17.6628 0.0992018C17.6983 0.137855 17.7232 0.184967 17.7352 0.236018C17.7472 0.287069 17.7458 0.340345 17.7313 0.390735L16.1733 5.79374C16.1589 5.84403 16.1575 5.89719 16.1695 5.94814C16.1814 5.99909 16.2063 6.04612 16.2416 6.08474C16.2769 6.12337 16.3215 6.15229 16.3712 6.16874C16.4209 6.1852 16.4739 6.18864 16.5253 6.17874L18.9133 5.71874C18.9695 5.70775 19.0276 5.71274 19.0811 5.73316C19.1346 5.75357 19.1813 5.78858 19.2159 5.8342C19.2505 5.87983 19.2716 5.93424 19.2768 5.99126C19.282 6.04827 19.2711 6.10561 19.2453 6.15674L12.4553 19.7067L12.3323 19.8967C12.3059 19.9397 12.2688 19.9752 12.2246 19.9997C12.1805 20.0243 12.1308 20.037 12.0803 20.0367C11.9033 20.0367 11.7303 19.8847 11.7753 19.6677L12.8703 14.3667C12.8811 14.3148 12.8781 14.261 12.8618 14.2105C12.8455 14.1601 12.8163 14.1147 12.7772 14.0789C12.7381 14.0431 12.6904 14.0181 12.6387 14.0064C12.587 13.9946 12.5331 13.9964 12.4823 14.0117L11.0493 14.4467C10.9986 14.4622 10.9447 14.4642 10.893 14.4526C10.8412 14.4409 10.7934 14.416 10.7542 14.3803C10.7149 14.3446 10.6857 14.2994 10.6692 14.2489C10.6528 14.1985 10.6497 14.1447 10.6603 14.0927L11.3503 10.7177C11.3608 10.6673 11.3584 10.6151 11.3433 10.5659C11.3282 10.5167 11.301 10.4721 11.2641 10.4362C11.2272 10.4003 11.1819 10.3743 11.1323 10.3606C11.0827 10.3469 11.0304 10.3459 10.9803 10.3577L8.66031 10.8937C8.61401 10.9044 8.56587 10.9041 8.5197 10.8929C8.47353 10.8817 8.4306 10.8599 8.39431 10.8292C8.35802 10.7986 8.32936 10.7599 8.31062 10.7162C8.29188 10.6726 8.28355 10.6252 8.28631 10.5777H8.28731ZM23.2633 2.65174L17.2853 3.73974L16.7413 5.62674L18.8183 5.22674C18.9793 5.19465 19.1462 5.21284 19.2965 5.27885C19.4467 5.34486 19.5731 5.45549 19.6583 5.59574C19.7307 5.71237 19.7718 5.84566 19.7778 5.98279C19.7837 6.11991 19.7543 6.25627 19.6923 6.37874L12.9013 19.9297L12.8883 19.9547L12.8733 19.9777L12.7513 20.1677C12.6792 20.2807 12.5799 20.3738 12.4625 20.4384C12.3451 20.5031 12.2133 20.5372 12.0793 20.5377C11.9579 20.5371 11.8382 20.5097 11.7286 20.4575C11.619 20.4053 11.5223 20.3296 11.4453 20.2357C11.3704 20.143 11.3172 20.0348 11.2895 19.9188C11.2618 19.8029 11.2604 19.6823 11.2853 19.5657L12.3143 14.5847L11.1943 14.9247C11.0411 14.9709 10.8777 14.9706 10.7246 14.924C10.5716 14.8774 10.4358 14.7865 10.3343 14.6627C10.2587 14.5704 10.2046 14.4623 10.1761 14.3464C10.1475 14.2305 10.1452 14.1097 10.1693 13.9927L10.7993 10.9127L8.77231 11.3807C8.63509 11.4122 8.49205 11.4072 8.35734 11.3663C8.22263 11.3255 8.10094 11.2501 8.00431 11.1477C7.92941 11.0676 7.87155 10.9731 7.83425 10.87C7.79695 10.7669 7.78098 10.6572 7.78731 10.5477L8.17631 3.97774L0.736313 2.64774C0.621681 2.62705 0.503527 2.63951 0.39573 2.68364C0.287932 2.72778 0.19497 2.80176 0.127763 2.8969C0.0605564 2.99204 0.0218966 3.10439 0.0163255 3.22074C0.0107544 3.33709 0.0385034 3.45261 0.0963126 3.55374L11.5813 23.6907C11.635 23.785 11.7127 23.8633 11.8066 23.9176C11.9004 23.972 12.007 24.0004 12.1155 24C12.2239 23.9996 12.3303 23.9704 12.4238 23.9153C12.5172 23.8603 12.5944 23.7814 12.6473 23.6867L23.9073 3.55174C23.9638 3.45043 23.9902 3.33517 23.9837 3.21939C23.9772 3.1036 23.9379 2.99206 23.8704 2.89775C23.8029 2.80344 23.71 2.73024 23.6025 2.68669C23.4951 2.64313 23.3774 2.63101 23.2633 2.65174Z" fill="white"/>
</g>
<defs>
<clipPath id="clip0_1285_23">
<rect width="24" height="24" fill="white"/>
</clipPath>
</defs>
</svg>
